PathFileType	4	(X/Y/Z)	/Users/itak/Documents/Research/Walk-IL/dataset/trc/00256_00009.trc
DataRate	CameraRate	NumFrames	NumMarkers	Units	OrigDataRate	OrigDataStartFrame	OrigNumFrames
100.000000	100.000000	4	53	mm	100.000000	218	583
Frame#	Time	RPSI			LPSI			L3			STRN			T10			C7			CLAV			RBAK			LBAK			LSHO			LUPA			LAEL			LAOL			LWTS			LWPS			LFRA			LIFD			LHPS			LHTS			RSHO			RUPA			RAEL			RAOL			RWTS			RWPS			RFRA			RIFD			RHTS			RHPS			RBHD			LFHD			RFHD			LBHD			LHIP			RHIP			RASI			LASI			LKNE			LTHI			LANK			LTIP			LTOE			LMT1			LMT5			LHEE			RKNE			RTHI			RANK			RTIP			RTOE			RMT1			RMT5			RHEE			
		X1	Y1	Z1	X2	Y2	Z2	X3	Y3	Z3	X4	Y4	Z4	X5	Y5	Z5	X6	Y6	Z6	X7	Y7	Z7	X8	Y8	Z8	X9	Y9	Z9	X10	Y10	Z10	X11	Y11	Z11	X12	Y12	Z12	X13	Y13	Z13	X14	Y14	Z14	X15	Y15	Z15	X16	Y16	Z16	X17	Y17	Z17	X18	Y18	Z18	X19	Y19	Z19	X20	Y20	Z20	X21	Y21	Z21	X22	Y22	Z22	X23	Y23	Z23	X24	Y24	Z24	X25	Y25	Z25	X26	Y26	Z26	X27	Y27	Z27	X28	Y28	Z28	X29	Y29	Z29	X30	Y30	Z30	X31	Y31	Z31	X32	Y32	Z32	X33	Y33	Z33	X34	Y34	Z34	X35	Y35	Z35	X36	Y36	Z36	X37	Y37	Z37	X38	Y38	Z38	X39	Y39	Z39	X40	Y40	Z40	X41	Y41	Z41	X42	Y42	Z42	X43	Y43	Z43	X44	Y44	Z44	X45	Y45	Z45	X46	Y46	Z46	X47	Y47	Z47	X48	Y48	Z48	X49	Y49	Z49	X50	Y50	Z50	X51	Y51	Z51	X52	Y52	Z52	X53	Y53	Z53	

219	2.18	-968.6786499023438	1036.435913085938	-375.8716125488281	-918.4208374023438	1045.3291015625	-484.6551208496094	-927.1495971679688	1132.302368164062	-450.8313598632812	-685.2942504882812	1308.226318359375	-341.9999389648438	-924.5935668945312	1259.823486328125	-451.0202941894531	-848.3960571289062	1515.87744140625	-427.4512939453125	-700.5386352539062	1428.906616210938	-351.4915161132812	-954.53759765625	1385.363037109375	-385.8031921386719	-817.4420166015625	1478.419677734375	-537.5210571289062	-712.5010986328125	1476.830322265625	-543.3785400390625	-691.4557495117188	1364.96337890625	-631.059326171875	-629.2161865234375	1163.5859375	-660.1129150390625	-710.3917236328125	1129.455322265625	-657.1123657226562	-522.4948120117188	964.7584228515625	-537.55322265625	-493.3217468261719	947.0169067382812	-615.90771484375	-574.6482543945312	1068.200927734375	-650.659423828125	-487.5948486328125	796.1551513671875	-524.7047119140625	-456.4951171875	868.2842407226562	-592.6122436523438	-453.6018981933594	880.49267578125	-525.2047729492188	-866.7288208007812	1487.280517578125	-245.9604187011719	-915.1304321289062	1428.758422851562	-188.9616394042969	-971.3648681640625	1148.300537109375	-158.0230255126953	-966.7229614257812	1142.376098632812	-253.2725677490234	-798.6605834960938	957.841552734375	-147.3406066894531	-868.9071044921875	928.4274291992188	-109.5231170654297	-944.8838500976562	1080.0439453125	-136.5930633544922	-737.5768432617188	779.4376220703125	-150.3446197509766	-746.0357666015625	844.8720092773438	-120.4143676757812	-813.27587890625	830.2832641601562	-95.00658416748047	-821.6346435546875	1668.030639648438	-384.0098876953125	-601.1234130859375	1686.875366210938	-333.6646423339844	-662.9546508789062	1689.10498046875	-254.8304901123047	-704.2399291992188	1666.090087890625	-460.738037109375	-770.0324096679688	984.6722412109375	-573.5060424804688	-919.763671875	997.8174438476562	-239.0991363525391	-815.4100341796875	1039.279174804688	-236.2419738769531	-694.5188598632812	1020.942016601562	-488.6248779296875	-756.6688842773438	497.9825439453125	-510.1842041015625	-749.1187133789062	642.5086059570312	-538.5293579101562	-906.3016967773438	36.60290145874023	-537.3623046875	-829.2296752929688	276.6593627929688	-534.0505981445312	-721.7931518554688	43.99114608764648	-410.7261352539062	-802.3865356445312	40.95730209350586	-393.2063293457031	-779.710693359375	34.20289611816406	-511.6750793457031	-981.1481323242188	45.61307907104492	-509.6024169921875	-722.9244995117188	537.1868286132812	-184.5426635742188	-822.4193115234375	793.2744140625	-186.6513671875	-872.3272705078125	76.26980590820312	-296.4176025390625	-720.8126831054688	416.7984313964844	-203.0458374023438	-673.7146606445312	63.13564682006836	-234.3541564941406	-699.5325927734375	60.24798965454102	-299.3729858398438	-790.6962890625	59.01572418212891	-222.9708404541016	-898.2384643554688	87.29695892333984	-375.8750915527344	
220	2.19	-962.762451171875	1035.892456054688	-375.4086303710938	-911.59130859375	1044.76953125	-483.7731628417969	-920.6027221679688	1131.869750976562	-450.0517578125	-679.4935302734375	1307.642578125	-339.0540161132812	-917.9234008789062	1259.394897460938	-450.1444091796875	-841.8260498046875	1515.401611328125	-425.7633666992188	-694.6114501953125	1428.353759765625	-348.5334777832031	-948.355712890625	1384.902099609375	-385.0755310058594	-809.8180541992188	1478.036010742188	-535.6339111328125	-704.8153076171875	1476.40771484375	-540.3953247070312	-682.5890502929688	1364.743041992188	-627.9381713867188	-618.955322265625	1163.755737304688	-656.33544921875	-699.8981323242188	1129.08251953125	-654.3071899414062	-512.2540283203125	966.2138671875	-531.78125	-481.8842163085938	948.40185546875	-609.71630859375	-563.7647705078125	1068.86767578125	-645.9728393554688	-475.9461059570312	797.9481811523438	-517.8256225585938	-444.6816101074219	870.1384887695312	-585.572021484375	-442.8231506347656	882.5941772460938	-518.19873046875	-861.675537109375	1486.685791015625	-244.4126129150391	-910.5485229492188	1428.130249023438	-187.8363494873047	-967.1776123046875	1147.660888671875	-157.7703399658203	-961.63427734375	1141.807861328125	-253.0089569091797	-795.5782470703125	956.3071899414062	-145.4143829345703	-866.3673095703125	927.2767333984375	-108.3301544189453	-941.24365234375	1079.293334960938	-136.1190185546875	-735.8095092773438	777.1785278320312	-147.8611450195312	-743.8927612304688	843.0030517578125	-117.9435653686523	-811.4541625976562	828.8234252929688	-93.27725982666016	-815.4937744140625	1667.447509765625	-381.8088073730469	-595.355712890625	1686.196166992188	-329.6666259765625	-657.9249877929688	1688.271118164062	-251.1794128417969	-697.4231567382812	1665.615112304688	-457.6181335449219	-762.5635986328125	984.1076049804688	-571.624755859375	-914.791748046875	997.2420043945312	-238.3687133789062	-810.5071411132812	1038.671997070312	-234.6425323486328	-687.6726684570312	1020.373291015625	-486.1175231933594	-754.7266235351562	497.4585571289062	-509.710693359375	-745.0280151367188	642.0182495117188	-537.1947021484375	-906.2967529296875	36.69978332519531	-537.2686157226562	-828.5562744140625	276.6427001953125	-533.9427490234375	-721.7898559570312	44.01153564453125	-410.7317810058594	-802.4207763671875	40.96669769287109	-393.1681213378906	-779.7155151367188	34.20014572143555	-511.6535949707031	-981.1552734375	45.89212417602539	-509.581298828125	-716.4125366210938	538.0523681640625	-181.6887664794922	-817.85888671875	793.3182983398438	-184.5650939941406	-843.5448608398438	69.25699615478516	-291.3688659667969	-710.1367797851562	417.2241821289062	-198.8995361328125	-646.3271484375	66.06584930419922	-223.744140625	-670.1265258789062	61.07633590698242	-289.4078979492188	-763.2144165039062	56.76740264892578	-215.4943389892578	-867.9360961914062	78.03105926513672	-371.6733703613281	
221	2.2	-956.7711791992188	1035.242065429688	-374.8685913085938	-904.6807250976562	1044.135375976562	-482.7803649902344	-914.0342407226562	1131.348388671875	-449.1435852050781	-673.6663208007812	1306.992309570312	-336.0456237792969	-911.2670288085938	1258.876831054688	-449.1421813964844	-835.265380859375	1514.841796875	-423.9793701171875	-688.6773681640625	1427.734375	-345.5244750976562	-942.1639404296875	1384.351196289062	-384.206787109375	-802.2463989257812	1477.560913085938	-533.6463012695312	-697.1926879882812	1475.892333984375	-537.3525390625	-673.8512573242188	1364.407836914062	-624.7349853515625	-608.9117431640625	1163.779174804688	-652.4440307617188	-689.6275634765625	1128.59765625	-651.3366088867188	-502.3010864257812	967.4985961914062	-525.91357421875	-470.7938842773438	949.5952758789062	-603.443359375	-553.1522216796875	1069.371337890625	-641.1697387695312	-464.6914367675781	799.5596923828125	-510.8491516113281	-433.2375183105469	871.788330078125	-578.4719848632812	-432.3891296386719	884.5008544921875	-511.1282348632812	-856.5703735351562	1486.022094726562	-242.7725067138672	-905.8782348632812	1427.433959960938	-186.5928039550781	-962.8656005859375	1146.953857421875	-157.3565521240234	-956.459228515625	1141.171508789062	-252.57177734375	-792.6203002929688	954.4946899414062	-143.4078369140625	-863.96630859375	925.953125	-107.0287780761719	-937.5398559570312	1078.462280273438	-135.4974975585938	-735.020263671875	773.8463745117188	-145.1797180175781	-742.0401000976562	840.8009033203125	-115.4438247680664	-809.9361572265625	827.11376953125	-91.48902893066406	-809.3404541015625	1666.808349609375	-379.5413208007812	-589.582763671875	1685.42724609375	-325.6605529785156	-652.8770141601562	1687.349365234375	-247.4897766113281	-690.6262817382812	1665.054565429688	-454.4554138183594	-755.0167236328125	983.5187377929688	-569.6528930664062	-909.7676391601562	996.49658203125	-237.5651702880859	-805.5173950195312	1037.950317382812	-232.9206695556641	-680.7623901367188	1019.755004882812	-483.5080261230469	-752.77734375	496.9668273925781	-509.2157287597656	-740.9285278320312	641.5057373046875	-535.8292236328125	-906.28466796875	36.80570220947266	-537.1707153320312	-827.8731079101562	276.6674499511719	-533.843505859375	-721.826904296875	44.01009368896484	-410.7393493652344	-802.4434814453125	40.97880172729492	-393.128173828125	-779.7200317382812	34.1939697265625	-511.6396789550781	-981.15283203125	46.20601654052734	-509.5639343261719	-710.3921508789062	538.5078125	-179.0050659179688	-813.5177612304688	793.0181884765625	-182.5167083740234	-814.6784057617188	62.87319564819336	-286.0483703613281	-699.7756958007812	417.4204711914062	-194.9317016601562	-619.2810668945312	69.42754364013672	-213.2944183349609	-641.0677490234375	62.54032516479492	-279.4613342285156	-735.7863159179688	54.92258834838867	-207.934326171875	-837.4375610351562	69.56489562988281	-367.0809936523438	
222	2.21	-950.6900634765625	1034.48828125	-374.2337036132812	-897.6906127929688	1043.432373046875	-481.6716003417969	-907.4280395507812	1130.735473632812	-448.1009826660156	-667.8155517578125	1306.277954101562	-332.9713745117188	-904.6100463867188	1258.265991210938	-448.0090026855469	-828.7125854492188	1514.197875976562	-422.0983276367188	-682.7377319335938	1427.047973632812	-342.4626159667969	-935.9599609375	1383.7080078125	-383.19677734375	-794.72509765625	1476.99462890625	-531.55615234375	-689.6319580078125	1475.281616210938	-534.247314453125	-665.2433471679688	1363.955078125	-621.448486328125	-599.078857421875	1163.65478515625	-648.44287109375	-679.5740966796875	1127.998291015625	-648.2088623046875	-492.6417541503906	968.5982666015625	-519.9605102539062	-460.0509033203125	950.5911865234375	-597.0935668945312	-542.8089599609375	1069.704467773438	-636.2579345703125	-453.8483581542969	800.9729614257812	-503.7912902832031	-422.1703796386719	873.2197875976562	-571.3147583007812	-422.3011169433594	886.2018432617188	-503.9940795898438	-851.4146728515625	1485.28955078125	-241.0369567871094	-901.1309814453125	1426.671630859375	-185.2324066162109	-958.4322509765625	1146.179809570312	-156.7769012451172	-951.2026977539062	1140.46826171875	-251.9558258056641	-789.7857666015625	952.4186401367188	-141.3263702392578	-861.7063598632812	924.4678955078125	-105.6227493286133	-933.7730102539062	1077.55517578125	-134.7257995605469	-735.0281372070312	769.6971435546875	-142.3498992919922	-740.4625244140625	838.2877197265625	-112.9189071655273	-808.6944580078125	825.173828125	-89.64106750488281	-803.1738891601562	1666.113647460938	-377.2070007324219	-583.8126220703125	1684.568725585938	-321.6423950195312	-647.796142578125	1686.343627929688	-243.7772064208984	-683.849609375	1664.410522460938	-451.2436218261719	-747.37158203125	982.9142456054688	-567.5763549804688	-904.6649780273438	995.5825805664062	-236.6752319335938	-800.4325561523438	1037.1123046875	-231.0733489990234	-673.7893676757812	1019.080017089844	-480.790771484375	-750.8126220703125	496.5079650878906	-508.7010498046875	-736.8372192382812	640.970703125	-534.450927734375	-906.2657470703125	36.92131805419922	-537.0673828125	-827.1725463867188	276.7327270507812	-533.7523803710938	-721.8992309570312	43.99334716796875	-410.7513122558594	-802.4513549804688	40.99396133422852	-393.0877685546875	-779.7247314453125	34.18396759033203	-511.6340637207031	-981.1334228515625	46.55946350097656	-509.5443420410156	-704.8018188476562	538.5347900390625	-176.5163116455078	-809.3711547851562	792.39013671875	-180.5116424560547	-785.8184204101562	57.14628219604492	-280.4510192871094	-689.6898193359375	417.3867492675781	-191.1737213134766	-592.644287109375	73.19499206542969	-203.0402526855469	-612.4520263671875	64.62552642822266	-269.593505859375	-708.478759765625	53.48309707641602	-200.3159942626953	-806.8788452148438	61.95714950561523	-362.0956420898438	
